<mxfile host="app.diagrams.net" modified="2023-08-07T12:03:04.354Z" agent="Mozilla/5.0 (Windows NT 10.0; Win64; x64) AppleWebKit/537.36 (KHTML, like Gecko) Chrome/115.0.0.0 Safari/537.36" etag="8GaOoLBAJQcnCIGLBMck" version="21.6.6" type="github">
  <diagram name="第 1 页" id="AlSvUqyxqbuitTiHdXQj">
    <mxGraphModel dx="1050" dy="630" grid="1" gridSize="10" guides="1" tooltips="1" connect="1" arrows="1" fold="1" page="1" pageScale="1" pageWidth="827" pageHeight="1169" math="0" shadow="0">
      <root>
        <mxCell id="0" />
        <mxCell id="1" parent="0" />
        <mxCell id="Ef43VHNCsAQ649JXsF7B-38" value="" style="rounded=0;whiteSpace=wrap;html=1;strokeColor=default;dashed=1;strokeWidth=1;" vertex="1" parent="1">
          <mxGeometry x="190" y="110" width="660" height="380" as="geometry" />
        </mxCell>
        <mxCell id="Ef43VHNCsAQ649JXsF7B-2" value="频道管理系统" style="rounded=0;whiteSpace=wrap;html=1;fillColor=#FADEAC;strokeColor=#b46504;" vertex="1" parent="1">
          <mxGeometry x="210" y="120" width="620" height="50" as="geometry" />
        </mxCell>
        <mxCell id="Ef43VHNCsAQ649JXsF7B-3" value="" style="rounded=0;whiteSpace=wrap;html=1;dashed=1;" vertex="1" parent="1">
          <mxGeometry x="208.75" y="190" width="140" height="290" as="geometry" />
        </mxCell>
        <mxCell id="Ef43VHNCsAQ649JXsF7B-4" value="" style="rounded=0;whiteSpace=wrap;html=1;dashed=1;" vertex="1" parent="1">
          <mxGeometry x="450" y="190" width="140" height="290" as="geometry" />
        </mxCell>
        <mxCell id="Ef43VHNCsAQ649JXsF7B-5" value="" style="rounded=0;whiteSpace=wrap;html=1;dashed=1;" vertex="1" parent="1">
          <mxGeometry x="690" y="190" width="140" height="290" as="geometry" />
        </mxCell>
        <mxCell id="Ef43VHNCsAQ649JXsF7B-14" value="打点" style="rounded=0;whiteSpace=wrap;html=1;fillColor=#dae8fc;strokeColor=#6c8ebf;" vertex="1" parent="1">
          <mxGeometry x="232.5" y="250" width="92.5" height="30" as="geometry" />
        </mxCell>
        <mxCell id="Ef43VHNCsAQ649JXsF7B-15" value="" style="verticalLabelPosition=bottom;verticalAlign=top;html=1;strokeWidth=1;shape=mxgraph.arrows2.arrow;dy=0.6;dx=40;notch=0;fillColor=#ffe6cc;strokeColor=#d79b00;" vertex="1" parent="1">
          <mxGeometry x="360" y="310" width="80" height="50" as="geometry" />
        </mxCell>
        <mxCell id="Ef43VHNCsAQ649JXsF7B-16" value="参数校验" style="rounded=0;whiteSpace=wrap;html=1;fillColor=#dae8fc;strokeColor=#6c8ebf;" vertex="1" parent="1">
          <mxGeometry x="233.75" y="310" width="90" height="30" as="geometry" />
        </mxCell>
        <mxCell id="Ef43VHNCsAQ649JXsF7B-17" value="&lt;span style=&quot;border-color: var(--border-color);&quot;&gt;&lt;font style=&quot;font-size: 11px;&quot;&gt;前置处理器&lt;/font&gt;&lt;/span&gt;" style="text;html=1;align=center;verticalAlign=middle;resizable=0;points=[];autosize=1;strokeColor=none;fillColor=none;" vertex="1" parent="1">
          <mxGeometry x="210" y="190" width="80" height="30" as="geometry" />
        </mxCell>
        <mxCell id="Ef43VHNCsAQ649JXsF7B-18" value="&lt;span style=&quot;border-color: var(--border-color);&quot;&gt;&lt;font style=&quot;font-size: 11px;&quot;&gt;后置处理器&lt;/font&gt;&lt;/span&gt;" style="text;html=1;align=center;verticalAlign=middle;resizable=0;points=[];autosize=1;strokeColor=none;fillColor=none;" vertex="1" parent="1">
          <mxGeometry x="690" y="190" width="80" height="30" as="geometry" />
        </mxCell>
        <mxCell id="Ef43VHNCsAQ649JXsF7B-19" value="&lt;span style=&quot;border-color: var(--border-color);&quot;&gt;&lt;font style=&quot;font-size: 11px;&quot;&gt;中置处理器&lt;/font&gt;&lt;/span&gt;" style="text;html=1;align=center;verticalAlign=middle;resizable=0;points=[];autosize=1;strokeColor=none;fillColor=none;" vertex="1" parent="1">
          <mxGeometry x="450" y="190" width="80" height="30" as="geometry" />
        </mxCell>
        <mxCell id="Ef43VHNCsAQ649JXsF7B-20" value="实验分流" style="rounded=0;whiteSpace=wrap;html=1;fillColor=#dae8fc;strokeColor=#6c8ebf;" vertex="1" parent="1">
          <mxGeometry x="232.5" y="420" width="90" height="30" as="geometry" />
        </mxCell>
        <mxCell id="Ef43VHNCsAQ649JXsF7B-23" value="" style="verticalLabelPosition=bottom;verticalAlign=top;html=1;strokeWidth=1;shape=mxgraph.arrows2.arrow;dy=0.6;dx=40;notch=0;fillColor=#ffe6cc;strokeColor=#d79b00;" vertex="1" parent="1">
          <mxGeometry x="600" y="310" width="80" height="50" as="geometry" />
        </mxCell>
        <mxCell id="Ef43VHNCsAQ649JXsF7B-26" value="缓存" style="rounded=0;whiteSpace=wrap;html=1;fillColor=#d5e8d4;strokeColor=#82b366;" vertex="1" parent="1">
          <mxGeometry x="473.75" y="250" width="92.5" height="30" as="geometry" />
        </mxCell>
        <mxCell id="Ef43VHNCsAQ649JXsF7B-27" value="参数组装" style="rounded=0;whiteSpace=wrap;html=1;fillColor=#d5e8d4;strokeColor=#82b366;" vertex="1" parent="1">
          <mxGeometry x="473.75" y="310" width="92.5" height="30" as="geometry" />
        </mxCell>
        <mxCell id="Ef43VHNCsAQ649JXsF7B-28" value="子频道处理" style="rounded=0;whiteSpace=wrap;html=1;fillColor=#d5e8d4;strokeColor=#82b366;" vertex="1" parent="1">
          <mxGeometry x="473.75" y="420" width="92.5" height="30" as="geometry" />
        </mxCell>
        <mxCell id="Ef43VHNCsAQ649JXsF7B-29" value="条件过滤" style="rounded=0;whiteSpace=wrap;html=1;fillColor=#e1d5e7;strokeColor=#9673a6;" vertex="1" parent="1">
          <mxGeometry x="713.75" y="250" width="92.5" height="30" as="geometry" />
        </mxCell>
        <mxCell id="Ef43VHNCsAQ649JXsF7B-30" value="时间过滤" style="rounded=0;whiteSpace=wrap;html=1;fillColor=#e1d5e7;strokeColor=#9673a6;" vertex="1" parent="1">
          <mxGeometry x="713.75" y="310" width="92.5" height="30" as="geometry" />
        </mxCell>
        <mxCell id="Ef43VHNCsAQ649JXsF7B-31" value="版本过滤" style="rounded=0;whiteSpace=wrap;html=1;fillColor=#e1d5e7;strokeColor=#9673a6;" vertex="1" parent="1">
          <mxGeometry x="713.75" y="420" width="92.5" height="30" as="geometry" />
        </mxCell>
        <mxCell id="Ef43VHNCsAQ649JXsF7B-35" value="......" style="text;html=1;align=center;verticalAlign=middle;resizable=0;points=[];autosize=1;strokeColor=none;fillColor=none;" vertex="1" parent="1">
          <mxGeometry x="257.5" y="355" width="40" height="30" as="geometry" />
        </mxCell>
        <mxCell id="Ef43VHNCsAQ649JXsF7B-36" value="......" style="text;html=1;align=center;verticalAlign=middle;resizable=0;points=[];autosize=1;strokeColor=none;fillColor=none;" vertex="1" parent="1">
          <mxGeometry x="740" y="355" width="40" height="30" as="geometry" />
        </mxCell>
        <mxCell id="Ef43VHNCsAQ649JXsF7B-37" value="......" style="text;html=1;align=center;verticalAlign=middle;resizable=0;points=[];autosize=1;strokeColor=none;fillColor=none;" vertex="1" parent="1">
          <mxGeometry x="500" y="355" width="40" height="30" as="geometry" />
        </mxCell>
      </root>
    </mxGraphModel>
  </diagram>
</mxfile>
